999
Polyline generated by a calculator on http://www.liutaiomottola.com
0
SECTION
2
HEADER
9
$ACADVER
1
AC1006
9
$INSBASE
10
0.0
20
0.0
30
0.0
9
$EXTMIN
10
0
20
-0.02785
9
$EXTMAX
10
1
20
0.0619
0
ENDSEC
0
SECTION
2
ENTITIES
0
POLYLINE
8
0
66
1
0
VERTEX
8
0
10
1.00000
20
0.0
0
VERTEX
8
0
10
0.99671
20
0.00054
0
VERTEX
8
0
10
0.98726
20
0.00229
0
VERTEX
8
0
10
0.97237
20
0.00514
0
VERTEX
8
0
10
0.95248
20
0.00865
0
VERTEX
8
0
10
0.92764
20
0.01254
0
VERTEX
8
0
10
0.89810
20
0.01685
0
VERTEX
8
0
10
0.86427
20
0.02152
0
VERTEX
8
0
10
0.82660
20
0.02644
0
VERTEX
8
0
10
0.78557
20
0.03149
0
VERTEX
8
0
10
0.74165
20
0.03654
0
VERTEX
8
0
10
0.69537
20
0.04146
0
VERTEX
8
0
10
0.64723
20
0.04612
0
VERTEX
8
0
10
0.59778
20
0.05039
0
VERTEX
8
0
10
0.54753
20
0.05414
0
VERTEX
8
0
10
0.49702
20
0.05727
0
VERTEX
8
0
10
0.44676
20
0.05966
0
VERTEX
8
0
10
0.39727
20
0.06123
0
VERTEX
8
0
10
0.34902
20
0.06190
0
VERTEX
8
0
10
0.30248
20
0.06162
0
VERTEX
8
0
10
0.25809
20
0.06036
0
VERTEX
8
0
10
0.21624
20
0.05810
0
VERTEX
8
0
10
0.17730
20
0.05486
0
VERTEX
8
0
10
0.14161
20
0.05068
0
VERTEX
8
0
10
0.10945
20
0.04564
0
VERTEX
8
0
10
0.08108
20
0.03985
0
VERTEX
8
0
10
0.05673
20
0.03343
0
VERTEX
8
0
10
0.03658
20
0.02654
0
VERTEX
8
0
10
0.02076
20
0.01935
0
VERTEX
8
0
10
0.00932
20
0.01214
0
VERTEX
8
0
10
0.00235
20
0.00526
0
VERTEX
8
0
10
0.0
20
0.0
0
VERTEX
8
0
10
0.00002
20
-0.00048
0
VERTEX
8
0
10
0.00336
20
-0.00534
0
VERTEX
8
0
10
0.01247
20
-0.01006
0
VERTEX
8
0
10
0.02670
20
-0.01436
0
VERTEX
8
0
10
0.04596
20
-0.01811
0
VERTEX
8
0
10
0.07010
20
-0.02123
0
VERTEX
8
0
10
0.09896
20
-0.02372
0
VERTEX
8
0
10
0.13224
20
-0.02559
0
VERTEX
8
0
10
0.16963
20
-0.02688
0
VERTEX
8
0
10
0.21073
20
-0.02762
0
VERTEX
8
0
10
0.25509
20
-0.02785
0
VERTEX
8
0
10
0.30221
20
-0.02762
0
VERTEX
8
0
10
0.35156
20
-0.02696
0
VERTEX
8
0
10
0.40257
20
-0.02590
0
VERTEX
8
0
10
0.45463
20
-0.02446
0
VERTEX
8
0
10
0.50713
20
-0.02262
0
VERTEX
8
0
10
0.55944
20
-0.02025
0
VERTEX
8
0
10
0.61128
20
-0.01717
0
VERTEX
8
0
10
0.66244
20
-0.01366
0
VERTEX
8
0
10
0.71237
20
-0.01015
0
VERTEX
8
0
10
0.76037
20
-0.00691
0
VERTEX
8
0
10
0.80575
20
-0.00413
0
VERTEX
8
0
10
0.84779
20
-0.00192
0
VERTEX
8
0
10
0.88583
20
-0.00034
0
VERTEX
8
0
10
0.91925
20
0.00062
0
VERTEX
8
0
10
0.94748
20
0.00101
0
VERTEX
8
0
10
0.97003
20
0.00097
0
VERTEX
8
0
10
0.98652
20
0.00064
0
VERTEX
8
0
10
0.99660
20
0.00021
0
VERTEX
8
0
10
1.00000
20
0.0
0
SEQEND
0
ENDSEC
0
EOF
